<svg xmlns="http://www.w3.org/2000/svg" xmlns:xlink="http://www.w3.org/1999/xlink" width="300" zoomAndPan="magnify" viewBox="0 0 224.87999 225" height="300" preserveAspectRatio="xMidYMid meet" version="1.0"><defs><clipPath id="2b4374fa6f"><path d="M 74.632812 112 L 152.59375 112 L 152.59375 158.550781 L 74.632812 158.550781 Z M 74.632812 112 " clip-rule="nonzero"/></clipPath></defs><path fill="#040606" d="M 113.625 72.636719 C 123.3125 72.636719 131.09375 80.394531 131.09375 90.042969 C 131.09375 99.703125 123.320312 107.445312 113.625 107.445312 C 103.933594 107.445312 96.148438 99.703125 96.148438 90.042969 C 96.148438 80.394531 103.933594 72.636719 113.625 72.636719 Z M 113.617188 69.308594 C 102.128906 69.308594 92.8125 78.585938 92.8125 90.035156 C 92.8125 101.492188 102.128906 110.78125 113.617188 110.78125 C 125.117188 110.78125 134.433594 101.492188 134.433594 90.035156 C 134.433594 78.585938 125.117188 69.308594 113.617188 69.308594 " fill-opacity="1" fill-rule="nonzero"/><g clip-path="url(#2b4374fa6f)"><path fill="#040606" d="M 98.179688 115.582031 L 130.394531 115.582031 C 137.410156 116.421875 142.527344 121.570312 144.214844 129.164062 C 144.214844 129.171875 144.214844 129.179688 144.214844 129.195312 L 149.039062 150.097656 C 149.644531 152.71875 147.863281 155.027344 144.96875 155.089844 L 82.308594 155.089844 C 82.242188 155.089844 82.171875 155.082031 82.101562 155.082031 C 79.460938 155.035156 77.617188 152.757812 78.203125 150.207031 L 83.03125 129.3125 C 83.039062 129.296875 83.039062 129.289062 83.046875 129.28125 C 84.851562 121.089844 90.386719 115.851562 98.179688 115.582031 Z M 98.058594 112.113281 C 88.675781 112.445312 81.726562 119.101562 79.644531 128.535156 L 74.824219 149.421875 C 73.753906 154.058594 77.289062 158.449219 82.039062 158.535156 L 82.039062 158.550781 L 145.066406 158.550781 C 150.003906 158.433594 153.5 153.988281 152.410156 149.3125 L 147.59375 128.417969 C 145.628906 119.621094 139.324219 113.109375 130.746094 112.113281 L 98.058594 112.113281 " fill-opacity="1" fill-rule="nonzero"/></g></svg>